<svg version="1" xmlns="http://www.w3.org/2000/svg" width="266.667" height="266.667" viewBox="0 0 200.000000 200.000000"><path d="M64.1 3.7c-1.9 1.6-3.5 9.4-13.5 66.8-6.3 35.7-11.7 66.9-12.1 69.3-.9 5.8 1.2 9.2 5.8 9.2 2.5 0 6.9-2.7 19.7-11.9 9.1-6.6 16.8-11.6 17.1-11.3.6.6 16 41.8 23.4 62.5 4.3 12.1 4.5 12.1 22.4 6.3 22.7-7.5 24.7-8.4 25.9-11.1 1.3-2.8 1.3-2.7-14.2-44.5-5.8-15.7-10.6-28.8-10.6-29.1 0-.3 9.2-.9 20.5-1.2 11.3-.4 21.4-1.1 22.5-1.7 2.4-1.3 3.6-5.4 2.4-8-.5-1-23.7-23.2-51.6-49.4C84 14.2 70.4 2 68.6 2c-1.3 0-3.3.8-4.5 1.7zm53 60.5l32.6 30.5-17 .6c-17.8.6-19.8 1.2-21.2 5.7-.4 1.4 17.1 51.4 25.9 74 .5 1.2-1.5 2.3-9.5 4.9-5.5 1.8-10.2 3.1-10.4 2.9-.1-.1-6.2-16.5-13.5-36.3-8.3-22.9-13.9-36.6-15.2-37.8-1.1-.9-3-1.7-4.2-1.7-1.2 0-8.1 4.3-15.5 9.6-7.3 5.2-13.5 9.3-13.7 9.1-.4-.4 15.5-93.2 17.2-100.6.5-2.3.7-2.2 6.2 3.1 3.1 3 20.4 19.2 38.3 36z"/></svg>