<svg version="1" xmlns="http://www.w3.org/2000/svg" width="1885.333" height="1885.333" viewBox="0 0 1414.000000 1414.000000"><path d="M439.4 23.3c-5.8 4-10.6 9.9-12.8 15.9-.9 2.4-39.2 211-85.1 463.6-91.8 504.9-86.2 471.7-80.8 482.9 7.2 14.6 25 21.9 40.9 16.7 3.4-1.1 41.6-27.1 121.9-82.9 64.4-44.7 117.3-81 117.6-80.7.3.4 37.6 120.2 82.8 266.2 45.3 146 83.3 267.8 84.5 270.5 1.3 2.8 3.8 6.8 5.6 8.9 3.6 4 12.4 9.6 15.3 9.6.9 0 1.7.4 1.7 1 0 1.2 15.7 1.4 16.2.2.2-.4 54.3-17.8 120.2-38.6 66-20.8 122.4-38.7 125.3-39.8 6.5-2.4 14-9.4 17.3-16.3 2-3.9 2.5-6.9 2.7-13.5l.3-8.5-85.8-267.5-85.8-267.5 143-.8c157.5-.8 149.1-.4 157.8-7 5.7-4.4 10.6-11 12-16.3.7-2.4 1.6-4.4 2-4.4.4 0 .8-2.9.8-6.5 0-3.7-.4-6.5-1-6.5-.5 0-1-.8-1-1.8 0-7.1 4.8-2.3-340.6-343.9-184.5-182.5-337.2-332.8-339.2-334-3.4-2.1-5-2.3-17.3-2.3h-13.7l-4.8 3.3zM793.9 431l246.2 243.5-106.3.7c-157.6 1-147.2.7-153.6 4.1-7.1 3.7-12.8 9.7-16 16.6-2.2 4.7-2.6 6.9-2.5 13.6.1 7.7 2.8 16.6 87.7 280.9 48.1 150.1 87.4 273.1 87.2 273.3-.8.8-174.9 55.4-175.3 54.9-.2-.2-38.7-123.6-85.4-274.2-46.9-151.1-86-275.7-87.4-277.9-3.1-5.4-9.6-11.2-15.4-13.9-7.1-3.2-19.7-3-27.1.5-3 1.5-50.7 34.2-106 72.6-55.3 38.5-100.6 69.9-100.8 69.7-.4-.2 139.5-770.7 140.4-773.2.5-1.6-7.5-9.4 314.3 308.8z"/></svg>