<?xml version="1.0" standalone="no"?>
<!DOCTYPE svg PUBLIC "-//W3C//DTD SVG 20010904//EN"
 "http://www.w3.org/TR/2001/REC-SVG-20010904/DTD/svg10.dtd">
<svg version="1.0" xmlns="http://www.w3.org/2000/svg"
 width="1024.000000pt" height="1024.000000pt" viewBox="0 0 1024.000000 1024.000000"
 preserveAspectRatio="xMidYMid meet">
<metadata>
Created by potrace 1.11, written by Peter Selinger 2001-2013
</metadata>
<g transform="translate(0.000000,1024.000000) scale(0.100000,-0.100000)"
fill="#000000" stroke="none">
<path d="M3236 10006 c-55 -21 -108 -66 -133 -117 -18 -34 -160 -803 -634
-3408 -591 -3253 -611 -3366 -599 -3418 25 -114 120 -188 240 -188 41 1 76 7
97 18 17 9 409 279 872 601 647 450 841 580 845 568 67 -229 1203 -3875 1212
-3894 41 -79 144 -135 233 -126 51 5 1786 550 1841 578 80 41 124 116 124 210
1 59 -58 248 -618 1993 -341 1060 -617 1930 -614 1933 4 3 476 8 1049 12
l1044 7 41 22 c145 77 181 266 71 382 -44 46 -4615 4570 -4745 4696 -57 55
-120 108 -139 119 -48 24 -138 30 -187 12z m2412 -2881 l1879 -1860 -901 -8
c-606 -5 -915 -11 -943 -18 -53 -14 -117 -68 -145 -123 -49 -93 -84 28 611
-2138 349 -1088 632 -1980 629 -1983 -5 -5 -1261 -403 -1265 -401 0 0 -274
881 -607 1956 -333 1075 -613 1975 -622 1999 -52 139 -213 204 -340 137 -27
-14 -371 -250 -764 -524 -393 -274 -717 -494 -718 -490 -2 5 225 1266 505
2802 l508 2794 147 -142 c81 -77 993 -978 2026 -2001z"/>
</g>
</svg>
