<?xml version="1.0" encoding="utf-8"?>
<svg width="166mm" height="71mm" viewBox="0 -10.358 166 81.358" version="1.1" id="svg4781" xmlns="http://www.w3.org/2000/svg">
  <g id="layer1" transform="translate(0,-226)" style="display:inline"/>
  <g id="layer2" transform="translate(0,-226)" style="display:inline">
    <path style="fill:#ffffff;stroke-width:0.11802986;stroke-linecap:round;stroke-linejoin:round;stroke-miterlimit:4;stroke-dasharray:none;paint-order:stroke markers fill" d="m 63.016905,280.93269 c -5.06152,-16.32456 -4.749669,-15.53065 -6.163121,-15.68997 -0.897431,-0.10115 -0.662359,-0.24023 -6.700146,3.96419 -2.654583,1.84852 -4.865874,3.32159 -4.913976,3.27348 -0.109202,-0.1092 7.172267,-40.2255 7.301291,-40.2255 0.0517,0 6.650685,6.48192 14.664402,14.40426 l 14.570394,14.40425 -6.540492,0.0781 c -5.775828,0.069 -6.597363,0.10922 -7.026909,0.34445 -0.527926,0.28911 -0.996953,1.10714 -0.996953,1.7388 0,0.2181 2.066881,6.84748 4.593064,14.73198 2.526187,7.88449 4.616561,14.46408 4.645275,14.62131 0.04497,0.24626 -0.553703,0.47843 -4.319811,1.67527 -2.404614,0.76417 -4.412083,1.39087 -4.461047,1.39267 -0.04896,0.002 -2.14235,-6.61917 -4.651971,-14.71327 z" id="path8203"/>
    <text style="font: 10.5833px/1.25 &quot;Overpass Mono&quot;; letter-spacing: 0px; word-spacing: 0px; fill: rgb(0, 0, 0); fill-opacity: 1; stroke: none; stroke-width: 0.264583; white-space: pre;" x="19.016928" y="252.35156" id="text28"><tspan id="tspan26" x="19.016928" y="261.61197" style="stroke-width:0.26458332"/></text>
    <g aria-label="C DS" style="font-style:normal;font-variant:normal;font-weight:normal;font-stretch:normal;font-size:71.14647675px;line-height:1.25;font-family:'Overpass Mono';-inkscape-font-specification:'Overpass Mono';letter-spacing:0px;word-spacing:0px;fill:#000000;fill-opacity:1;stroke:none;stroke-width:0.95285469" id="text40" transform="translate(-8.3178386,2.993099)">
      <path d="m 29.189464,279.04693 q -3.913056,0 -7.185794,-1.42293 -3.201592,-1.49407 -5.335986,-3.91305 -2.063248,-2.49013 -3.486177,-5.83401 -1.42293,-3.34389 -2.063248,-6.97236 -0.640318,-3.62847 -0.640318,-7.61267 0,-6.83006 1.849808,-12.45063 1.849809,-5.69172 6.189744,-9.46249 4.339935,-3.84191 10.671971,-3.84191 9.462482,0 13.588977,8.82217 l -5.407132,2.917 q -1.565223,-2.917 -3.415031,-4.48222 -1.849808,-1.56523 -4.766814,-1.56523 -3.272738,0 -5.762865,1.84981 -2.490126,1.77866 -3.913056,4.76682 -1.351783,2.98815 -2.063248,6.40318 -0.640318,3.34388 -0.640318,7.0435 0,5.33599 1.20949,9.74707 1.280637,4.33993 4.126496,7.32808 2.917005,2.98816 7.043501,2.98816 5.691718,0 8.67987,-6.33204 l 5.478279,2.06325 q -1.849808,4.41108 -5.407132,7.18579 -3.486178,2.77471 -8.751017,2.77471 z" style="stroke-width:0.95285469" id="path64"/>
      <path d="m 99.800121,278.19318 v -49.80254 h 11.739169 q 5.40713,0 9.46248,2.1344 4.1265,2.13439 6.40318,5.76286 2.34784,3.62847 3.41503,7.89726 1.13835,4.26879 1.13835,9.10675 0,4.62452 -1.0672,8.82216 -0.99605,4.1265 -3.27274,7.89726 -2.20554,3.69962 -6.47433,5.97631 -4.19764,2.20554 -9.88936,2.20554 z m 6.189739,-5.62058 h 5.47828 q 3.91306,0 6.75892,-1.63636 2.84586,-1.70752 4.33993,-4.62453 1.56523,-2.917 2.27669,-6.11859 0.71147,-3.20159 0.71147,-6.90121 0,-8.1107 -3.34389,-13.66012 -3.27274,-5.62058 -9.96051,-5.62058 h -6.26089 z" style="stroke-width:0.95285469" id="path66"/>
      <path d="m 159.08181,279.04693 q -5.69172,0 -10.03165,-3.13044 -4.26879,-3.13045 -5.83401,-7.89726 l 5.69172,-2.06325 q 1.42293,3.41503 4.19764,5.47828 2.77471,1.9921 6.26089,1.9921 3.91305,0 6.18974,-2.13439 2.27669,-2.20554 2.27669,-6.18975 0,-6.47432 -10.03165,-10.81426 -2.84586,-1.20949 -4.76682,-2.27669 -1.92095,-1.13834 -4.05535,-2.84586 -2.06325,-1.77866 -3.20159,-4.12649 -1.0672,-2.41898 -1.0672,-5.40713 0,-5.12255 3.77077,-8.60873 3.77076,-3.48618 10.03165,-3.48618 5.0514,0 8.60872,2.49013 3.62847,2.41898 4.69567,6.33204 l -5.62057,1.84981 q -0.9249,-2.20554 -2.98815,-3.62847 -2.06325,-1.42293 -4.90911,-1.42293 -3.34388,0 -5.33599,1.77866 -1.9921,1.70751 -1.9921,4.69567 0,1.70751 0.71147,3.05929 0.78261,1.35179 2.41898,2.49013 1.63637,1.13834 2.917,1.84981 1.35179,0.71146 3.84191,1.77866 2.70357,1.20949 4.62452,2.41898 1.99211,1.20949 4.1265,3.13045 2.20554,1.92095 3.34388,4.62452 1.13835,2.63242 1.13835,5.90516 0,6.61662 -4.19764,10.38738 -4.19765,3.77076 -10.81427,3.77076 z" style="stroke-width:0.95285469" id="path68"/>
    </g>
  </g>
  <g id="layer3" style="display:inline" transform="translate(0,-226)">
    <g transform="matrix(0.21504333,0,0,0.21504333,43.825969,228.6398)" id="g6044">
      <g id="g6708" transform="matrix(1.1129751,0,0,1.1129751,-23.804034,-13.107531)">
        <path id="path3818" style="fill:none;stroke:#000000;stroke-width:15.52482224;stroke-linecap:round;stroke-linejoin:round;stroke-miterlimit:4;stroke-dasharray:none;stroke-opacity:1;paint-order:stroke markers fill" d="M 52.719645,13.518806 17.597343,206.59498 74.055424,167.35328 111.71288,288.74639"/>
        <path id="path3818-1" style="fill:none;stroke:#000000;stroke-width:15.52482224;stroke-linecap:round;stroke-linejoin:round;stroke-miterlimit:4;stroke-dasharray:none;stroke-opacity:1;paint-order:stroke markers fill" d="m 52.719645,13.518806 139.514445,138.013414 -68.75586,0.2381 38.78104,121.03885"/>
        <path style="fill:none;stroke:#000000;stroke-width:15.52482224;stroke-linecap:butt;stroke-linejoin:miter;stroke-miterlimit:4;stroke-dasharray:none;stroke-opacity:1" d="m 111.71288,288.74638 50.54639,-15.93721" id="path5496"/>
      </g>
    </g>
  </g>
  <g transform="matrix(0.118507, 0, 0, 0.118507, 21.871475, -15.557515)">
    <path d="M 283.38 39.335 C 255.279 47.069 226.476 62.449 206.213 77.341 C 185.95 92.233 133.022 129.757 120.938 141.648 C 109.222 153.177 95.383 157.198 89.327 171.404 C 86.991 176.883 105.164 193.409 108.725 195.125 C 117.966 199.578 133.03 191.683 139.903 191.211 C 162.21 189.681 185.07 186.712 207.663 202.004 C 203.482 206.225 210.121 201.681 201.575 238.697 C 198.562 251.75 191.976 285.616 200.068 292.077 C 208.107 298.497 213.017 273.471 221.005 277.303 C 221.001 277.309 221.003 277.324 221 277.329 C 220.999 277.334 220.996 277.352 220.996 277.356 C 220.995 277.36 220.99 277.379 220.991 277.382 L 221.016 277.387 C 221.04 277.394 221.094 277.391 221.145 277.385 C 221.16 277.392 221.18 277.387 221.195 277.394 L 221.36 277.481 L 221.407 277.354 C 225.188 276.376 254.67 263.388 281.583 268.611 C 296.754 271.555 320.952 263.301 334.873 258.996 C 356.949 252.168 387.941 245.998 407.601 245.645 C 422.084 245.385 435.188 237.186 449.122 236.23 C 457.342 235.666 449.72 209.164 449.55 206.364 C 448.734 192.909 431.985 172.234 423.359 153.86 C 414.733 135.486 400.277 112.163 384.355 93.874 C 368.433 75.585 346.953 51.903 331.83 44.615 C 316.707 37.327 313.877 30.94 283.379 39.333 Z" fill="#d00000" fill-rule="evenodd" stroke="#000" stroke-width=".83349" transform="matrix(0.96323, 0.268678, -0.268678, 0.96323, 54.09434, -66.779238)"/>
    <path d="M 206.769 104.839 C 188.536 109.256 172.921 167.53 150.45 177.661 C 135.753 184.287 95.701 194.354 99.262 196.069 C 108.503 200.522 123.567 192.627 130.44 192.155 C 152.747 190.625 175.607 187.656 198.2 202.948 C 194.019 207.169 200.658 202.625 192.112 239.641 C 189.098 252.694 182.513 286.56 190.605 293.021 C 198.644 299.441 203.554 274.415 211.542 278.247 C 211.538 278.253 211.54 278.268 211.537 278.274 C 211.536 278.278 211.533 278.296 211.533 278.3 C 211.532 278.304 211.527 278.323 211.528 278.326 L 211.553 278.331 C 211.577 278.338 211.631 278.335 211.682 278.329 C 211.697 278.336 211.717 278.331 211.732 278.339 L 211.896 278.425 L 211.944 278.298 C 215.725 277.321 245.207 264.332 272.12 269.555 C 287.291 272.499 311.489 264.245 325.41 259.94 C 347.486 253.112 378.478 246.942 398.138 246.589 C 412.621 246.329 425.725 238.13 439.659 237.174 C 447.879 236.61 388.574 241.694 412.209 224.598 C 422.694 217.014 307.229 240.406 262.899 189.821 C 219.004 139.733 225.444 100.315 206.772 104.838 Z" fill="#0e0000" fill-rule="evenodd" opacity=".10112" transform="matrix(0.96323, 0.268678, -0.268678, 0.96323, 63.461145, -65.146464)"/>
    <path d="M 94.064 120.499 C 97.615 122.852 121.462 153.016 124.279 150.905 C 124.62 147.574 121.838 146.263 119.882 145.882 C 122.502 142.553 122.996 139.072 118.45 138.773 C 113.409 137.883 107.907 137.258 113.317 131.837 C 115.815 128.798 113.149 123.402 111.615 120.657 C 107.586 118.48 104.549 114.542 102.898 111.865" fill-rule="evenodd" opacity=".26966" stroke="#000" stroke-width=".83016" transform="matrix(0.96323, 0.268678, -0.268678, 0.96323, 39.329216, -24.502856)"/>
    <path d="M 386.206 241.869 C 378.755 239.227 369.405 236.174 362.816 236.582 C 358.291 232.759 354.818 237.47 350.897 238.723 C 350.24 231.364 339.386 241.836 334.606 241.896 C 331.212 243.844 333.552 236.095 327.473 239.043 C 319.915 239.757 315.241 240.276 309.634 242.703 C 308.287 250.716 296.185 255.23 294.374 246.448 C 287.775 249.319 275.505 254.889 275.426 245.806 C 264.862 254 264.526 261.404 254.212 265.359 C 255.125 258.267 231.841 254.451 228.668 261.894 C 222.278 264.467 229.997 252.573 220.763 255.842 C 210.362 252.818 216.416 273.777 195.209 265.208 C 183.401 264.828 189.941 281.927 182.148 289.09 C 180.072 296.622 171.064 286.466 167.419 287.03 C 168.267 298.957 170.827 294.912 168.139 303.027 C 166.535 313.192 164.387 318.282 175.57 320.399 C 179.192 315.495 175.388 317.57 176.198 326.616 C 182.656 324.737 191.144 313.976 190.273 325.035 C 194.655 318.362 208.527 314.884 208.353 307.696 C 215.375 308.433 223.255 316.275 229.183 306.743 C 235.134 299.702 243.687 296.436 243.777 301.874 C 251.011 308.631 251.735 307.262 259.255 305.542 C 257.318 296.831 276.854 304.944 266.538 296.271 C 270.636 292.167 281.725 289.769 288.134 291.195 C 293.804 299.449 311.078 300.132 313.766 289.448 C 314.33 281.044 327.448 278.169 332.353 283.98 C 340.883 276.501 354.337 287.368 361.677 281.636 C 355.079 273.073 371.001 267.478 373.975 274.043 C 379.817 270.906 385.253 259.62 391.643 267.7 C 398.993 265.305 407.968 261.974 414.185 259.478 C 418.852 267.171 430.932 259.257 425.696 249.946 C 422.861 243.295 435.006 253.22 431.7 244.782 C 427.939 235.705 422.657 223.09 416.186 223.507 C 407.373 221.305 402.148 227.252 401.783 235.667 C 401.671 229.526 391.261 235.512 385.8 237.739 L 382.806 238.451 L 379.229 235.928" fill-rule="evenodd" opacity=".29405" stroke="#000" stroke-width=".60143" transform="matrix(0.96323, 0.268678, -0.268678, 0.96323, 84.855628, -70.378514)"/>
    <path d="M 389.761 244.317 C 382.31 241.675 375.405 241.303 368.816 241.71 C 364.291 237.888 358.921 239.142 355 240.395 C 354.342 233.036 345.386 246.964 340.605 247.025 C 337.211 248.973 339.551 241.224 333.472 244.171 C 325.914 244.885 317.153 240.199 311.547 242.626 C 310.2 250.639 298.098 255.153 296.287 246.371 C 289.688 249.242 281.505 260.018 281.425 250.935 C 269.04 250.392 263.735 262.568 253.421 266.523 C 254.333 259.43 237.84 259.58 234.666 267.023 C 228.276 269.596 232.967 253.584 223.733 256.853 C 213.332 253.829 213.616 274.55 201.208 270.337 C 189.4 269.957 191.049 281.695 183.257 288.858 C 181.181 296.39 177.063 291.595 173.417 292.159 C 179.417 300.673 155.024 298.9 162.265 312.029 C 160.661 322.194 163.114 329.501 174.297 331.618 C 177.919 326.715 181.386 322.699 182.196 331.746 C 188.654 329.866 197.142 319.106 196.271 330.164 C 200.653 323.491 214.525 320.013 214.351 312.825 C 221.373 313.562 229.253 321.405 235.181 311.872 C 241.132 304.831 242.115 310.576 242.205 316.014 C 249.438 322.771 257.733 312.391 265.254 310.671 C 263.316 301.96 282.853 310.073 272.536 301.4 C 276.634 297.296 287.723 294.898 294.132 296.324 C 299.756 301.658 317.076 305.262 319.764 294.577 C 320.328 286.173 333.446 283.298 338.351 289.109 C 346.881 281.631 360.335 292.498 367.675 286.765 C 361.078 278.202 377 272.607 379.973 279.172 C 385.815 276.035 391.251 264.749 397.641 272.829 C 404.991 270.434 413.966 267.104 420.183 264.607 C 424.85 272.301 436.93 264.386 431.694 255.075 C 428.86 248.424 441.004 258.349 437.698 249.911 C 437.772 240.255 434.135 225.311 422.184 228.636 C 413.371 226.435 408.146 232.381 407.781 240.796 C 407.669 234.655 393.755 236.873 388.295 239.1 L 386.506 240.046 L 385.227 241.058" fill="#fff" fill-rule="evenodd" stroke="#000" stroke-width=".60143" transform="matrix(0.96323, 0.268678, -0.268678, 0.96323, 86.233492, -70.199573)"/>
    <path d="M 205.245 206.21 C 208.385 165.363 229.03 146.76 225.396 114.089 C 223.248 94.779 205.859 109.416 211.527 127.531" fill="none" stroke="#000" stroke-width=".83349" transform="matrix(0.96323, 0.268678, -0.268678, 0.96323, 49.728255, -52.188326)"/>
    <path d="M 178.028 269.684 C 175.952 277.216 171.835 272.421 168.189 272.985 C 174.188 281.499 149.796 279.726 157.037 292.855 C 155.433 303.02 157.885 310.327 169.069 312.444 C 172.69 307.541 176.158 303.525 176.968 312.571 C 183.425 310.692 191.914 299.931 191.043 310.99 C 195.425 304.317 209.297 300.839 209.123 293.651 C 216.145 294.388 223.689 301.001 229.616 291.468 C 235.567 284.427 236.886 291.402 236.976 296.84 C 244.209 303.597 252.504 293.217 260.025 291.497 C 258.087 282.786 268.891 289.952 267.307 282.226 C 266.27 277.165 300.952 278.664 295.964 273.715 C 281.058 258.928 257.773 281.207 254.404 279.785 C 251.035 278.363 247.313 279.226 252.019 277.066 C 256.726 274.906 245.277 278.458 235.742 275.072 C 226.208 271.685 219.228 275.967 218.591 284.414 C 211.41 279.948 210.895 285.021 199.706 288.132 C 206.836 277.709 187.106 285.364 187.106 285.364 C 187.106 285.364 190.544 273.936 184.367 275.444 C 187.688 269.48 184.002 267.642 184.002 267.642 C 184.002 267.642 185.821 262.521 178.029 269.684 Z" fill-rule="evenodd" opacity=".11236" transform="matrix(0.96323, 0.268678, -0.268678, 0.96323, 86.0195, -50.104816)"/>
    <path d="M 96.203 107.462 C 94.901 105.144 90.845 104.505 90.324 102.539 C 91.23 100.256 87.664 101.912 86.962 100.657 C 82.767 104.091 76.977 105.577 73.869 110.299 C 75.522 109.937 75.518 107.521 73.712 109.303 C 70.311 110.993 67.024 113.961 68.303 118.196 C 68.612 120.369 65.877 122.239 69.216 122.754 C 68.781 126.233 63.561 126.087 63.558 129.158 C 64.713 132.507 64.205 135.998 61.457 138.347 C 58.739 140.889 59.859 144.631 59.958 147.718 C 58.591 149.784 57.821 151.704 59.623 153.671 C 60.004 157.219 62.95 159.569 62.972 163.261 C 64.212 165.195 66.699 165.076 67.969 167.262 C 71.679 167.578 71.951 172.759 75.486 173.477 C 78.522 174.468 82.114 173.781 84.85 174.507 C 87.094 176.326 89.669 177.594 92.494 178.105 C 96.045 180.365 97.252 174.74 99.401 172.929 C 99.512 170.097 101.547 169.877 102.909 172.261 C 106.01 174.364 109.223 170.743 111.447 168.827 C 113.62 166.458 116.058 164.407 118.479 162.33 C 121.915 158.452 123.134 152.901 122.942 147.795 C 123.283 144.596 120.308 144.419 118.352 144.054 C 119.236 141.371 121.465 137.512 116.919 137.225 C 114.312 136.544 108.402 133.631 111.787 130.563 C 114.285 127.644 110.847 123.715 109.313 121.079 C 106.657 118.964 105.114 116.02 103.462 113.448 C 100.264 112.939 97.268 110.996 96.453 107.603 C 95.599 104.909 96.216 106.904 96.486 108.216" fill="#fff" fill-rule="evenodd" stroke="#000" stroke-width=".8136" transform="matrix(0.96323, 0.268678, -0.268678, 0.96323, 40.856977, -19.252655)"/>
    <path d="M 66.141 141.044 C 64.54 139.076 70.863 140.003 70.341 138.037 C 71.247 135.753 70.162 135.658 69.46 134.403 C 65.265 137.837 66.253 129.702 63.145 134.425 C 64.798 134.062 64.526 128.091 62.72 129.874 C 59.319 131.563 60.04 124.068 60.037 127.139 C 61.192 130.488 60.684 133.979 57.936 136.328 C 55.218 138.87 56.337 142.611 56.436 145.699 C 55.069 147.764 54.3 149.685 56.102 151.652 C 56.483 155.2 59.429 157.55 59.451 161.241 C 60.691 163.176 63.177 163.057 64.447 165.243 C 68.158 165.559 68.43 170.74 71.965 171.458 C 75.001 172.449 78.593 171.762 81.329 172.488 C 83.573 174.307 86.148 175.575 88.973 176.086 C 92.524 178.346 93.731 172.721 95.88 170.91 C 95.991 168.078 98.026 167.858 99.388 170.242 C 102.489 172.345 105.702 168.724 107.925 166.808 C 110.099 164.439 99.579 167.168 101.999 165.091 C 105.435 161.212 94.247 170.504 94.055 165.399 C 94.395 162.2 81.685 169.47 84.376 163.845 C 85.261 161.163 85.912 163.097 81.366 162.81 C 78.759 162.129 71.563 157.316 74.947 154.248 C 77.445 151.329 73.605 154.704 72.072 152.068 C 69.415 149.954 71.112 151.118 69.46 148.546 C 66.263 148.037 67.669 146.73 66.853 143.337 C 65.47 147.318 65.872 139.732 66.141 141.044 Z" fill-rule="evenodd" opacity=".09551" transform="matrix(0.96323, 0.268678, -0.268678, 0.96323, 43.707057, -16.362619)"/>
    <path d="M 209.727 188.203 C 209.727 188.203 222.872 154.691 226.03 141.321 C 228.985 128.812 228.602 109.718 224.176 106.184 C 219.751 102.65 213.929 108.763 213.315 116 C 212.701 123.238 212.188 125.062 215.159 138.867 C 216.506 145.126 215.833 159.96 214.002 166.962 C 212.171 173.964 208.175 189.908 209.726 188.203 Z" fill-opacity=".22346" fill-rule="evenodd" transform="matrix(0.96323, 0.268678, -0.268678, 0.96323, 47.466114, -53.352186)"/>
  </g>
</svg>